<svg xmlns="http://www.w3.org/2000/svg" viewBox="0 0 698.7055 511.0674"><g id="Layer_2" data-name="Layer 2"><g id="Layer_1-2" data-name="Layer 1"><path d="M35.5259,399.6356a19.8219,19.8219,0,0,0-19.9305,19.9281v.3476a19.9321,19.9321,0,0,0,19.9305,19.9281H43.151a36.6722,36.6722,0,0,1,22.1826,7.7989,35.1984,35.1984,0,0,1,13.1719,27.5556v.3476A35.4279,35.4279,0,0,1,43.151,511.0674H0V495.47H43.151a19.8219,19.8219,0,0,0,19.93-19.9281v-.3476a19.9341,19.9341,0,0,0-19.93-19.93H34.8331C15.25,454.5706,0,439.32,0,419.9113v-.3476a35.574,35.574,0,0,1,35.5259-35.5259h42.98v15.5978Z" style="fill:#c97f46"/><rect x="104.4923" y="384.0378" width="84.3975" height="15.5978" style="fill:#c97f46"/><rect x="139.3255" y="415.231" width="15.5978" height="95.8364" style="fill:#c97f46"/><rect x="323.1827" y="416.8974" width="15.5978" height="94.17" style="fill:#c97f46"/><path d="M206.2112,468.6091V384.0378H221.809v84.5713a26.8617,26.8617,0,0,0,53.7233,0V384.0378h15.5954v84.5713a42.4583,42.4583,0,1,1-84.9165,0Z" style="fill:#c97f46"/><path d="M323.1827,495.47h30.3266a47.9177,47.9177,0,1,0,0-95.834H323.1827V384.0378h30.3266a63.6052,63.6052,0,0,1,63.7767,63.6005A62.8037,62.8037,0,0,1,398.57,492.5248a63.4485,63.4485,0,0,1-45.06,18.5426H323.1827Z" style="fill:#c97f46"/><path d="M450.0313,399.6356H434.4335V384.0378h15.5978Zm0,111.4318H434.4335V415.231h15.5978Z" style="fill:#c97f46"/><path d="M489.5424,492.5248a63.5148,63.5148,0,0,1,44.8841-108.487,63.5148,63.5148,0,1,1-44.8841,108.487Zm-2.9472-44.8865a47.9183,47.9183,0,1,0,47.8313-48.0027A47.816,47.816,0,0,0,486.5952,447.6383Z" style="fill:#c97f46"/><path d="M655.7259,399.6356a19.8219,19.8219,0,0,0-19.9305,19.9281v.3476a19.9321,19.9321,0,0,0,19.9305,19.9281h7.6251a36.6722,36.6722,0,0,1,22.1826,7.7989,35.1981,35.1981,0,0,1,13.1719,27.5556v.3476a35.4278,35.4278,0,0,1-35.3545,35.5259H620.2V495.47h43.151a19.8219,19.8219,0,0,0,19.9305-19.9281v-.3476a19.9341,19.9341,0,0,0-19.9305-19.93h-8.3178C635.45,454.5706,620.2,439.32,620.2,419.9113v-.3476a35.574,35.574,0,0,1,35.5259-35.5259h42.98v15.5978Z" style="fill:#c97f46"/><polygon points="367.164 183.92 445.345 352.179 491.851 352.179 392.952 139.939 367.164 183.92" style="fill:#c97f46"/><path d="M292.2335,42.6372c31.8823-.849,48.6651,22.2451,54.4535,46.3156l48.6487-.6111c-3.561-28.0506-20.377-56.2651-42.9175-71.4277A93.3526,93.3526,0,0,0,298.3951,0,96.9389,96.9389,0,0,0,201.621,96.7741h42.2811C244.889,66.3688,262.1787,43.4376,292.2335,42.6372Z" style="fill:#c97f46"/><polygon points="400.69 317.684 381.207 275.403 294.906 275.403 368.192 148.567 395.093 102.239 346.569 102.203 246.051 275.403 221.623 317.684 400.69 317.684" style="fill:#c97f46"/></g></g></svg>