<svg xmlns="http://www.w3.org/2000/svg" viewBox="0 0 764.1791 764.1791"><g id="Layer_2" data-name="Layer 2"><g id="Layer_1-2" data-name="Layer 1"><rect width="764.1791" height="764.1791" rx="382.0892" style="fill:#f7f7f7"/><text transform="translate(102.4672 532.0191) scale(1.006 1)" style="font-size:48.432456970214844px;fill:#4f4f4f;font-family:Ubuntu-Regular, Ubuntu">Get back on healt<tspan x="383.3358" y="0" style="letter-spacing:-0.016996912606275734em">h</tspan><tspan x="410.1676" y="0">y track</tspan></text><path d="M268.7106,256.7562c0-15.2028,11.2485-25.2492,27.2836-25.2492,15.7939,0,27.0424,10.0464,27.0424,25.2492s-11.2485,25.247-27.0424,25.247C279.9591,282.0032,268.7106,271.9588,268.7106,256.7562Z" style="fill:#333"/><path d="M325.6219,489.8758H253.2153c49.6459-68.2745,45.1126-133.4414,0-194.0233h72.4066v17.2117H308.3073v159.6h17.3146Z" style="fill:#333"/><path d="M284.8288,393.2989c0,48.2919-37.7606,76.8288-97.1618,76.8288H101.3254V316.47H187.667C247.0682,316.47,284.8288,345.0061,284.8288,393.2989Zm-45.9313,0c0-27.22-21.64-41.2682-54.7638-41.2682H146.3725v82.5358h37.7612C217.2573,434.5665,238.8975,420.5178,238.8975,393.2989Z" style="fill:#6eaa49"/><path d="M477.1524,435.8835v34.2442H312.1978V316.47H474.7236v34.2439h-118.14v25.2438h97.3824v32.7067H356.5834v27.22Z" style="fill:#6eaa49"/><path d="M662.8537,352.25H598.5942V470.1277H553.5461V352.25H489.7293V316.47H662.8537Z" style="fill:#6eaa49"/><path d="M395.8552,299.4966c-.198-2.1683-.3972-4.3378-.4962-6.5061a29.9187,29.9187,0,0,1-23.8991,12.52c-13.7848,0-23.8013-10.0554-23.8013-23.2651,0-15.773,13.785-27.603,29.3539-27.603a24.3886,24.3886,0,0,1,17.9506,7.3939,190.4056,190.4056,0,0,1-1.4884-23.0684c0-3.943,1.19-5.7176,3.7687-5.7176,3.2723,0,6.3468,4.4361,6.3468,8.6756,0,17.7443-1.4872,54.4161-1.6851,57.67-.1992,3.1534-1.19,4.7312-3.0744,4.7312C396.7473,304.3273,396.1522,302.4544,395.8552,299.4966Zm-2.2815-20.9975c0-8.28-6.5447-14.3928-15.569-14.3928-11.1075,0-21.3218,9.1684-21.3218,20.11,0,8.0838,6.3469,13.9982,15.3709,13.9982C383.0624,298.2149,393.5737,289.2444,393.5737,278.4991Z" style="fill:#333"/><path d="M411.5354,282.64c0-14.7877,13.686-29.1808,30.3462-29.1808,15.0739,0,25.1894,11.9284,25.1894,22.3786,0,3.5481-1.19,5.421-4.4627,5.421H442.8738c-10.91,0-17.85-.3935-21.8168-.9849-.5965,11.73,7.1386,17.2511,17.3543,17.2511a32.0378,32.0378,0,0,0,18.1485-5.816c1.6838-1.1832,2.5782-1.7747,3.9664-1.7747,1.8843,0,3.2723,1.0847,3.2723,2.6613a5.0924,5.0924,0,0,1-1.7865,3.3526c-5.7506,5.9144-15.966,9.5622-24.8913,9.5622C422.6429,305.5105,411.5354,295.9483,411.5354,282.64Zm29.75-9.5634,14.7785-.492c.99,0,1.4859-.2963,1.4859-1.0846a5.1651,5.1651,0,0,0-1.2881-2.8594c-2.6783-3.5481-7.5368-6.3093-14.1819-6.3093-9.6194,0-17.1562,5.7189-19.9327,12.8165A118.047,118.047,0,0,1,441.2851,273.0767Z" style="fill:#333"/><path d="M468.6814,266.9815c0-2.5632,2.3878-4.5128,5.0052-4.9756,1.1718-.2071,5.1959-.5611,6.6817-.6594-.0978-6.0141-.0978-11.14-.0978-14.3931,0-3.3515.6941-5.4224,4.1644-5.4224,2.9744,0,5.653,3.2541,5.653,7,0,4.3364,0,1.0141-.0979,4.9571,6.3469-.2952,12.3957-.4932,14.0818-.4932,6.5448,0,8.2312.79,8.2312,3.1546,0,1.9726-2.1825,2.86-3.3727,3.2541-3.1745,1.0837-11.6037.5673-19.2384,1.6521-.4961,12.3231-1.19,31.8361-1.7865,38.44-.1979,2.3661-.7919,4.8307-2.7764,4.8307-1.6863,0-2.7762-1.6763-3.0743-4.7312-.594-6.309-1.09-19.74-1.3882-30.2885C476.5021,269.3076,468.6814,271.9107,468.6814,266.9815Z" style="fill:#333"/><path d="M511.516,284.2167c0-15.378,15.2722-29.9678,31.9324-29.9678,12.8915,0,22.9092,8.7739,22.9092,21.2925,0,15.3794-15.272,29.9691-31.9322,29.9691C521.5312,305.5105,511.516,296.7366,511.516,284.2167Zm46.3122-6.9007c0-8.0839-6.1488-13.998-14.7758-13.998-11.2054,0-22.1149,9.9567-22.1149,20.8,0,8.0838,6.1488,13.9982,14.7758,13.9982C546.8208,298.1166,557.8282,288.16,557.8282,277.316Z" style="fill:#333"/><path d="M571.92,279.4854a44.3311,44.3311,0,0,1,5.2568-20.4069c1.6863-3.2529,3.2723-5.52,5.3546-5.52,2.7762,0,4.7607,3.943,4.7607,6.1113a7.3388,7.3388,0,0,1-1.09,3.2529c-2.9767,6.0139-5.8532,11.9283-5.8532,19.519,0,8.9718,3.9689,15.1814,12.4957,15.1814,11.2079,0,15.3723-10.8437,15.3723-21.9825,0-4.5357-.6941-10.7464-.6941-12.4216,0-1.2814.396-3.0561,2.4781-3.0561,1.7865,0,2.6786,1.1832,3.3727,2.86a59.176,59.176,0,0,1,3.1747,17.8426c0,13.6034-9.4215,24.6451-22.9094,24.6451C579.6549,305.5105,571.92,293.5822,571.92,279.4854Z" style="fill:#333"/><path d="M628.0592,299.3c-2.38-16.4629-4.5629-32.0389-4.5629-35.1935,0-2.2667,1.19-4.0415,3.4705-4.0415,3.57,0,6.0511,4.4361,6.0511,8.6755,0,4.0413-.1,8.6742-.3983,12.2234C637.38,266.2757,647,254.939,657.313,254.939c3.0743,0,5.1566,3.3512,5.1566,6.309,0,3.1546-2.28,3.746-5.9486,4.7312-15.9661,4.1409-19.8348,18.9275-22.1149,35.4889a2.9463,2.9463,0,0,1-3.0746,2.8592C628.9513,304.3273,628.4552,302.06,628.0592,299.3Z" style="fill:#333"/><path d="M555.35,248.4892a12.7072,12.7072,0,0,1-3.16,1.6195c-4.1226,1.8029-4.9561,1.4831-6.6046-2.4261-4.2023-9.9661,2.0445-21.6945,13.0031-24.54a2.134,2.134,0,0,1,2.7787,1.0965C566.18,232.1472,563.567,242.91,555.35,248.4892Z" style="fill:#6eaa49"/><path d="M533.672,242.7582a6.717,6.717,0,0,0-1.8124.477c-2.2544.7438-2.4667,1.1619-1.7211,3.2709,1.901,5.3768,8.5175,7.77,13.8179,5.0312a1.1146,1.1146,0,0,0,.697-1.4058C543.7235,245.3451,538.872,242.0522,533.672,242.7582Z" style="fill:#6eaa49"/></g></g></svg>