<svg width="63" height="62" viewBox="0 0 63 62" fill="none" xmlns="http://www.w3.org/2000/svg">
<g clip-path="url(#clip0_20_844)">
<path d="M36.9651 32.6101L50.9992 62.4435H59.3474L41.5942 24.812L36.9651 32.6101Z" fill="white"/>
<path d="M23.5144 7.55983C29.2376 7.4093 32.2502 11.504 33.2893 15.7719L42.0221 15.6635C41.3829 10.69 38.3643 5.68737 34.3181 2.99895C31.4777 1.03198 28.0894 -0.0158632 24.6205 -5.74476e-06C20.0156 0.00772014 15.6016 1.81798 12.3455 5.03418C9.08934 8.25037 7.2566 12.6103 7.24878 17.1586H14.8386C15.0157 11.7676 18.1194 7.70175 23.5144 7.55983Z" fill="white"/>
<path d="M42.9833 56.3273L39.4859 48.8306H23.9942L37.1496 26.3418L41.9786 18.1276L33.2681 18.1212L15.2244 48.8306L10.8394 56.3273H42.9833Z" fill="white"/>
</g>
<defs>
<clipPath id="clip0_20_844">
<rect width="62.7116" height="62" fill="white"/>
</clipPath>
</defs>
</svg>
