<svg width="62" height="62" viewBox="0 0 62 62" fill="none" xmlns="http://www.w3.org/2000/svg">
<g clip-path="url(#clip0_1_3)">
<path d="M36.5456 32.6101L50.4205 62.4435H58.6739L41.1222 24.812L36.5456 32.6101Z" fill="#C97F46"/>
<path d="M23.2476 7.55983C28.9058 7.4093 31.8843 11.504 32.9115 15.7719L41.5453 15.6635C40.9133 10.69 37.9289 5.68737 33.9286 2.99895C31.1205 1.03198 27.7706 -0.0158632 24.3411 -5.74476e-06C19.7885 0.00772014 15.4246 1.81798 12.2054 5.03418C8.98618 8.25037 7.17424 12.6103 7.1665 17.1586H14.6702C14.8453 11.7676 17.9137 7.70175 23.2476 7.55983Z" fill="#C97F46"/>
<path d="M42.4955 56.3273L39.0378 48.8306H23.7219L36.7281 26.3418L41.5022 18.1276L32.8906 18.1212L15.0516 48.8306L10.7163 56.3273H42.4955Z" fill="#C97F46"/>
</g>
<defs>
<clipPath id="clip0_1_3">
<rect width="62" height="62" fill="white"/>
</clipPath>
</defs>
</svg>
